<?xml version="1.0" encoding="UTF-8" standalone="no"?>
<svg
   xmlns:dc="http://purl.org/dc/elements/1.1/"
   xmlns:cc="http://creativecommons.org/ns#"
   xmlns:rdf="http://www.w3.org/1999/02/22-rdf-syntax-ns#"
   xmlns:svg="http://www.w3.org/2000/svg"
   xmlns="http://www.w3.org/2000/svg"
   xmlns:sodipodi="http://sodipodi.sourceforge.net/DTD/sodipodi-0.dtd"
   xmlns:inkscape="http://www.inkscape.org/namespaces/inkscape"
   version="1.1"
   id="svg2"
   xml:space="preserve"
   width="666.66669"
   height="666.66669"
   viewBox="0 0 666.66669 666.66669"
   sodipodi:docname="5120636.ai"><metadata
     id="metadata8"><rdf:RDF><cc:Work
         rdf:about=""><dc:format>image/svg+xml</dc:format><dc:type
           rdf:resource="http://purl.org/dc/dcmitype/StillImage" /></cc:Work></rdf:RDF></metadata><defs
     id="defs6"><clipPath
       clipPathUnits="userSpaceOnUse"
       id="clipPath20"><path
         d="M 0,500 H 500 V 0 H 0 Z"
         id="path18" /></clipPath><clipPath
       clipPathUnits="userSpaceOnUse"
       id="clipPath692"><path
         d="M 188.371,140.855 H 310.01 V 69.7053 H 188.371 Z"
         id="path690" /></clipPath></defs><sodipodi:namedview
     pagecolor="#ffffff"
     bordercolor="#666666"
     borderopacity="1"
     objecttolerance="10"
     gridtolerance="10"
     guidetolerance="10"
     inkscape:pageopacity="0"
     inkscape:pageshadow="2"
     inkscape:window-width="640"
     inkscape:window-height="480"
     id="namedview4" /><g
     id="g10"
     inkscape:groupmode="layer"
     inkscape:label="5120636"
     transform="matrix(1.3333333,0,0,-1.3333333,0,666.66667)"><path
       d="M 0,0 H 500 V 500 H 0 Z"
       style="fill:#ffffff;fill-opacity:0;fill-rule:nonzero;stroke:none"
       id="path12" /><g
       id="g14"><g
         id="g16"
         clip-path="url(#clipPath20)">
          <g
           id="g98"
           transform="translate(439.9482,162.3252)"><path
             d="m 0,0 c 0,0 2.404,29.641 7.904,51.391 -2.5,1.5 -4,1.25 -4,1.25 0,0 -8.5,-34.25 -9.75,-52 C -2.917,-1.65 0,0 0,0"
             style="fill:#cea467;fill-opacity:1;fill-rule:nonzero;stroke:none"
             id="path100" /></g><g
           id="g102"
           transform="translate(445.9365,212.1328)"><path
             d="m 0,0 c 0,0 0.333,-9.5 0,-14.417 0.667,0.284 1.25,1.667 1.25,1.667 0,0 -0.5,-7.397 -1.25,-9.157 0.916,0.407 1.25,1.74 1.25,1.74 L 0,-26.917 c 3.916,2.5 5.916,11.084 5.583,12.75 0.75,-1.75 0.917,-4.333 0.917,-4.333 0,0 1.583,7.833 -2.25,12.417 C 5.5,-6.25 6.823,-8 6.823,-8 6.823,-8 5.583,-2 0,0"
             style="fill:#cea467;fill-opacity:1;fill-rule:nonzero;stroke:none"
             id="path104" /></g><g
           id="g106"
           transform="translate(444.8555,213.6689)"><path
             d="m 0,0 c 0,0 5.639,-7.652 8.139,-11.899 0.39,0.611 0.09,2.082 0.09,2.082 0,0 3.764,-6.389 4.139,-8.265 0.527,0.853 0.049,2.143 0.049,2.143 l 2.779,-6.278 c 1.822,4.276 -1.374,12.488 -2.59,13.676 1.608,-1.021 3.204,-3.059 3.204,-3.059 0,0 -3.116,7.36 -8.868,8.979 1.126,0.567 3.207,-0.129 3.207,-0.129 0,0 -4.412,4.252 -10.149,2.75"
             style="fill:#cea467;fill-opacity:1;fill-rule:nonzero;stroke:none"
             id="path108" /></g><g
           id="g110"
           transform="translate(444.8555,214.2305)"><path
             d="m 0,0 c 0,0 9.241,-2.229 13.888,-3.868 -0.094,0.719 -1.27,1.651 -1.27,1.651 0,0 6.992,-2.467 8.486,-3.662 -0.147,0.993 -1.341,1.672 -1.341,1.672 l 6.167,-3.016 c -1.358,4.445 -9.09,8.674 -10.784,8.8 1.886,0.253 4.419,-0.279 4.419,-0.279 0,0 -7.121,3.627 -12.564,1.164 C 7.496,3.621 9.538,4.427 9.538,4.427 9.538,4.427 3.425,4.842 0,0"
             style="fill:#cea467;fill-opacity:1;fill-rule:nonzero;stroke:none"
             id="path112" /></g><g
           id="g114"
           transform="translate(444.8555,213.9902)"><path
             d="m 0,0 c 0,0 8.82,3.544 13.558,4.903 -0.495,0.531 -1.993,0.609 -1.993,0.609 0,0 7.126,2.046 9.037,1.938 -0.695,0.724 -2.063,0.584 -2.063,0.584 l 6.773,1.12 c -3.683,2.833 -12.434,1.794 -13.888,0.914 1.39,1.301 3.763,2.336 3.763,2.336 0,0 -7.905,-1.175 -10.912,-6.339 C 4.007,7.298 5.202,9.138 5.202,9.138 5.202,9.138 -0.018,5.931 0,0"
             style="fill:#cea467;fill-opacity:1;fill-rule:nonzero;stroke:none"
             id="path116" /></g><g
           id="g118"
           transform="translate(444.7832,212.3203)"><path
             d="m 0,0 c 0,0 -4.394,-8.43 -6.21,-13.01 -0.48,0.543 -0.41,2.042 -0.41,2.042 0,0 -2.736,-6.891 -2.818,-8.802 -0.651,0.762 -0.377,2.109 -0.377,2.109 l -1.781,-6.63 c -2.457,3.943 -0.564,12.551 0.454,13.911 -1.43,-1.256 -2.693,-3.516 -2.693,-3.516 0,0 1.945,7.752 7.379,10.237 -1.199,0.388 -3.148,-0.621 -3.148,-0.621 0,0 3.704,4.881 9.604,4.28"
             style="fill:#cea467;fill-opacity:1;fill-rule:nonzero;stroke:none"
             id="path120" /></g><g
           id="g122"
           transform="translate(446.4209,213.2412)"><path
             d="m 0,0 c 0,0 -8.386,-4.478 -12.472,-7.232 -0.089,0.719 0.815,1.918 0.815,1.918 0,0 -6.149,-4.145 -7.294,-5.676 -0.108,0.997 0.878,1.955 0.878,1.955 l -5.212,-4.468 c 0.198,4.643 6.62,10.678 8.228,11.226 -1.889,-0.229 -4.208,-1.381 -4.208,-1.381 0,0 5.982,5.3 11.87,4.283 -0.771,0.997 -2.95,1.265 -2.95,1.265 0,0 5.814,1.936 10.345,-1.89"
             style="fill:#cea467;fill-opacity:1;fill-rule:nonzero;stroke:none"
             id="path124" /></g><g
           id="g126"
           transform="translate(446.6621,213.748)"><path
             d="m 0,0 c 0,0 -9.299,1.97 -14.199,2.491 0.394,0.609 1.857,0.944 1.857,0.944 0,0 -7.373,0.786 -9.235,0.351 0.559,0.832 1.93,0.931 1.93,0.931 l -6.865,-0.066 c 3.14,3.426 11.94,3.912 13.524,3.296 -1.594,1.041 -4.11,1.653 -4.11,1.653 0,0 7.989,0.205 11.841,-4.363 0.052,1.26 -1.443,2.867 -1.443,2.867 0,0 5.695,-2.259 6.7,-8.104"
             style="fill:#cea467;fill-opacity:1;fill-rule:nonzero;stroke:none"
             id="path128" /></g><g
           id="g130"
           transform="translate(446.5586,213.5312)"><path
             d="m 0,0 c 0,0 -6.433,6.998 -10.123,10.265 0.675,0.266 2.06,-0.309 2.06,-0.309 0,0 -5.549,4.916 -7.319,5.642 0.939,0.354 2.112,-0.362 2.112,-0.362 l -5.629,3.929 c 4.544,0.97 11.995,-3.737 12.927,-5.158 -0.694,1.772 -2.389,3.729 -2.389,3.729 0,0 6.627,-4.465 7.116,-10.421 0.772,0.997 0.487,3.172 0.487,3.172 0,0 3.329,-5.143 0.758,-10.487"
             style="fill:#cea467;fill-opacity:1;fill-rule:nonzero;stroke:none"
             id="path132" /></g><g
           id="g134"
           transform="translate(445.1191,212.8369)"><path
             d="m 0,0 c 0,0 4.551,8.346 7.342,12.407 -0.719,0.096 -1.925,-0.798 -1.925,-0.798 0,0 4.197,6.113 5.739,7.245 C 10.16,18.97 9.194,17.992 9.194,17.992 l 4.513,5.173 C 9.063,23.008 2.971,16.64 2.409,15.035 c 0.246,1.889 1.418,4.196 1.418,4.196 0,0 -5.351,-5.934 -4.387,-11.831 -0.991,0.78 -1.239,2.96 -1.239,2.96 0,0 -1.988,-5.796 1.799,-10.36"
             style="fill:#cea467;fill-opacity:1;fill-rule:nonzero;stroke:none"
             id="path136" /></g><g
           id="g138"
           transform="translate(328.3408,177.2725)"><path
             d="M 0,0 C 0,0 1.121,13.814 3.685,23.95 2.52,24.649 1.82,24.533 1.82,24.533 1.82,24.533 -2.142,8.571 -2.724,0.299 -1.359,-0.77 0,0 0,0"
             style="fill:#cea467;fill-opacity:1;fill-rule:nonzero;stroke:none"
             id="path140" /></g><g
           id="g142"
           transform="translate(331.1318,200.4854)"><path
             d="m 0,0 c 0,0 0.155,-4.428 0,-6.719 0.312,0.132 0.583,0.777 0.583,0.777 0,0 -0.233,-3.448 -0.583,-4.268 0.428,0.189 0.583,0.812 0.583,0.812 L 0,-12.545 c 1.825,1.165 2.758,5.166 2.603,5.942 0.349,-0.815 0.426,-2.019 0.426,-2.019 0,0 0.739,3.65 -1.049,5.787 0.583,-0.078 1.201,-0.894 1.201,-0.894 0,0 -0.578,2.796 -3.181,3.729"
             style="fill:#cea467;fill-opacity:1;fill-rule:nonzero;stroke:none"
             id="path144" /></g><g
           id="g146"
           transform="translate(330.6279,201.2012)"><path
             d="m 0,0 c 0,0 2.628,-3.566 3.794,-5.546 0.182,0.285 0.042,0.97 0.042,0.97 0,0 1.754,-2.977 1.929,-3.851 0.245,0.398 0.022,0.998 0.022,0.998 l 1.296,-2.925 c 0.849,1.992 -0.641,5.82 -1.207,6.374 0.749,-0.476 1.492,-1.426 1.492,-1.426 0,0 -1.452,3.429 -4.132,4.184 0.525,0.265 1.494,-0.06 1.494,-0.06 0,0 -2.055,1.981 -4.73,1.282"
             style="fill:#cea467;fill-opacity:1;fill-rule:nonzero;stroke:none"
             id="path148" /></g><g
           id="g150"
           transform="translate(330.6279,201.4629)"><path
             d="m 0,0 c 0,0 4.308,-1.039 6.473,-1.803 -0.044,0.335 -0.592,0.77 -0.592,0.77 0,0 3.259,-1.15 3.955,-1.707 -0.068,0.463 -0.625,0.779 -0.625,0.779 l 2.874,-1.405 c -0.633,2.071 -4.236,4.042 -5.026,4.1 0.879,0.119 2.06,-0.13 2.06,-0.13 0,0 -3.319,1.691 -5.856,0.543 0.231,0.54 1.182,0.916 1.182,0.916 C 4.445,2.063 1.597,2.257 0,0"
             style="fill:#cea467;fill-opacity:1;fill-rule:nonzero;stroke:none"
             id="path152" /></g><g
           id="g154"
           transform="translate(330.6279,201.3506)"><path
             d="M 0,0 C 0,0 4.111,1.652 6.318,2.285 6.089,2.532 5.391,2.568 5.391,2.568 c 0,0 3.321,0.954 4.211,0.905 C 9.278,3.81 8.641,3.744 8.641,3.744 l 3.156,0.523 c -1.716,1.32 -5.795,0.836 -6.473,0.425 0.649,0.607 1.754,1.089 1.754,1.089 0,0 -3.683,-0.548 -5.085,-2.954 C 1.868,3.401 2.425,4.259 2.425,4.259 2.425,4.259 -0.008,2.765 0,0"
             style="fill:#cea467;fill-opacity:1;fill-rule:nonzero;stroke:none"
             id="path156" /></g><g
           id="g158"
           transform="translate(330.5947,200.5723)"><path
             d="m 0,0 c 0,0 -2.048,-3.929 -2.895,-6.063 -0.223,0.253 -0.191,0.952 -0.191,0.952 0,0 -1.274,-3.212 -1.312,-4.103 -0.304,0.356 -0.176,0.984 -0.176,0.984 l -0.83,-3.09 c -1.146,1.838 -0.263,5.849 0.212,6.483 -0.667,-0.586 -1.256,-1.639 -1.256,-1.639 0,0 0.907,3.613 3.439,4.771 -0.559,0.181 -1.468,-0.289 -1.468,-0.289 0,0 1.727,2.274 4.477,1.994"
             style="fill:#cea467;fill-opacity:1;fill-rule:nonzero;stroke:none"
             id="path160" /></g><g
           id="g162"
           transform="translate(331.3574,201.002)"><path
             d="m 0,0 c 0,0 -3.907,-2.087 -5.812,-3.371 -0.042,0.336 0.379,0.893 0.379,0.893 0,0 -2.865,-1.93 -3.399,-2.644 -0.05,0.465 0.409,0.911 0.409,0.911 l -2.429,-2.082 c 0.092,2.163 3.085,4.977 3.835,5.231 -0.88,-0.106 -1.961,-0.643 -1.961,-0.643 0,0 2.788,2.47 5.532,1.996 -0.36,0.465 -1.374,0.59 -1.374,0.59 0,0 2.709,0.902 4.82,-0.881"
             style="fill:#cea467;fill-opacity:1;fill-rule:nonzero;stroke:none"
             id="path164" /></g><g
           id="g166"
           transform="translate(331.4707,201.2373)"><path
             d="m 0,0 c 0,0 -4.334,0.919 -6.618,1.162 0.183,0.283 0.866,0.44 0.866,0.44 0,0 -3.436,0.366 -4.305,0.163 0.261,0.388 0.9,0.433 0.9,0.433 l -3.199,-0.029 c 1.463,1.596 5.564,1.823 6.302,1.535 -0.743,0.485 -1.915,0.771 -1.915,0.771 0,0 3.723,0.095 5.519,-2.034 0.023,0.587 -0.673,1.336 -0.673,1.336 0,0 2.654,-1.052 3.123,-3.777"
             style="fill:#cea467;fill-opacity:1;fill-rule:nonzero;stroke:none"
             id="path168" /></g><g
           id="g170"
           transform="translate(331.4219,201.1367)"><path
             d="m 0,0 c 0,0 -2.998,3.262 -4.718,4.784 0.315,0.124 0.961,-0.144 0.961,-0.144 0,0 -2.587,2.291 -3.412,2.63 0.438,0.165 0.984,-0.168 0.984,-0.168 l -2.623,1.83 c 2.118,0.452 5.59,-1.742 6.025,-2.404 -0.323,0.826 -1.113,1.738 -1.113,1.738 0,0 3.088,-2.081 3.316,-4.857 0.36,0.465 0.226,1.479 0.226,1.479 0,0 1.552,-2.397 0.354,-4.888"
             style="fill:#cea467;fill-opacity:1;fill-rule:nonzero;stroke:none"
             id="path172" /></g><g
           id="g174"
           transform="translate(330.751,200.8135)"><path
             d="M 0,0 C 0,0 2.121,3.89 3.422,5.782 3.087,5.827 2.524,5.41 2.524,5.41 c 0,0 1.957,2.849 2.675,3.376 C 4.735,8.841 4.285,8.385 4.285,8.385 l 2.104,2.411 C 4.225,10.723 1.385,7.755 1.123,7.007 c 0.114,0.88 0.661,1.956 0.661,1.956 0,0 -2.494,-2.767 -2.045,-5.515 -0.462,0.365 -0.577,1.38 -0.577,1.38 0,0 -0.927,-2.701 0.838,-4.828"
             style="fill:#cea467;fill-opacity:1;fill-rule:nonzero;stroke:none"
             id="path176" /></g><g
           id="g178"
           transform="translate(164.5112,178.7402)"><path
             d="m 0,0 c 0,0 -3.136,19.8 -2.99,34.922 -1.876,0.586 -2.819,0.183 -2.819,0.183 0,0 -0.125,-23.788 1.878,-35.614 C -1.649,-1.544 0,0 0,0"
             style="fill:#cea467;fill-opacity:1;fill-rule:nonzero;stroke:none"
             id="path180" /></g><g
           id="g182"
           transform="translate(160.5176,212.3203)"><path
             d="m 0,0 c 0,0 1.728,-6.17 2.291,-9.443 0.392,0.291 0.554,1.29 0.554,1.29 0,0 0.848,-4.926 0.637,-6.198 0.536,0.413 0.542,1.339 0.542,1.339 l 0.254,-4.621 c 2.168,2.261 2.115,8.201 1.631,9.24 0.77,-1.027 1.289,-2.693 1.289,-2.693 0,0 -0.207,5.384 -3.447,7.776 0.845,0.09 1.991,-0.845 1.991,-0.845 0,0 -1.766,3.732 -5.742,4.155"
             style="fill:#cea467;fill-opacity:1;fill-rule:nonzero;stroke:none"
             id="path184" /></g><g
           id="g186"
           transform="translate(159.5654,213.1553)"><path
             d="m 0,0 c 0,0 4.91,-4.117 7.223,-6.502 0.159,0.463 -0.271,1.378 -0.271,1.378 0,0 3.481,-3.586 4.024,-4.756 0.21,0.644 -0.309,1.411 -0.309,1.411 l 2.819,-3.67 c 0.514,3.09 -2.885,7.963 -3.87,8.547 1.215,-0.413 2.584,-1.494 2.584,-1.494 0,0 -3.21,4.325 -7.236,4.472 0.648,0.552 2.121,0.426 2.121,0.426 0,0 -3.565,2.084 -7.085,0.188"
             style="fill:#cea467;fill-opacity:1;fill-rule:nonzero;stroke:none"
             id="path188" /></g><g
           id="g190"
           transform="translate(159.4761,213.5234)"><path
             d="m 0,0 c 0,0 6.408,0.009 9.713,-0.327 -0.176,0.456 -1.095,0.88 -1.095,0.88 0,0 4.973,-0.505 6.141,-1.05 -0.253,0.627 -1.144,0.882 -1.144,0.882 l 4.519,-0.995 c -1.595,2.695 -7.333,4.237 -8.463,4.049 1.196,0.466 2.94,0.52 2.94,0.52 0,0 -5.241,1.244 -8.416,-1.234 0.14,0.838 1.349,1.691 1.349,1.691 0,0 -4.07,-0.7 -5.544,-4.416"
             style="fill:#cea467;fill-opacity:1;fill-rule:nonzero;stroke:none"
             id="path192" /></g><g
           id="g194"
           transform="translate(159.5146,213.3652)"><path
             d="M 0,0 C 0,0 5.215,3.724 8.102,5.367 7.694,5.637 6.7,5.449 6.7,5.449 c 0,0 4.343,2.473 5.612,2.706 -0.571,0.364 -1.444,0.055 -1.444,0.055 l 4.259,1.811 C 12.264,11.291 6.695,9.22 5.883,8.412 c 0.704,1.072 2.094,2.128 2.094,2.128 0,0 -4.992,-2.026 -6.141,-5.887 -0.371,0.765 0.12,2.16 0.12,2.16 0,0 -2.911,-2.93 -1.956,-6.813"
             style="fill:#cea467;fill-opacity:1;fill-rule:nonzero;stroke:none"
             id="path196" /></g><g
           id="g198"
           transform="translate(159.7324,212.2607)"><path
             d="m 0,0 c 0,0 -1.538,-6.221 -2,-9.511 -0.401,0.281 -0.594,1.274 -0.594,1.274 0,0 -0.697,-4.95 -0.446,-6.214 -0.548,0.395 -0.583,1.321 -0.583,1.321 l -0.112,-4.626 c -2.237,2.193 -2.365,8.132 -1.914,9.186 -0.738,-1.051 -1.206,-2.732 -1.206,-2.732 0,0 0.043,5.387 3.208,7.878 -0.848,0.064 -1.964,-0.907 -1.964,-0.907 0,0 1.651,3.786 5.611,4.331"
             style="fill:#cea467;fill-opacity:1;fill-rule:nonzero;stroke:none"
             id="path200" /></g><g
           id="g202"
           transform="translate(160.6587,213.124)"><path
             d="m 0,0 c 0,0 -4.782,-4.267 -7.021,-6.721 -0.172,0.458 0.229,1.386 0.229,1.386 0,0 -3.369,-3.691 -3.876,-4.877 -0.229,0.637 0.265,1.42 0.265,1.42 l -2.704,-3.755 c -0.609,3.072 2.639,8.048 3.606,8.662 -1.202,-0.45 -2.538,-1.573 -2.538,-1.573 0,0 3.077,4.422 7.096,4.691 -0.664,0.532 -2.134,0.361 -2.134,0.361 0,0 3.5,2.192 7.077,0.406"
             style="fill:#cea467;fill-opacity:1;fill-rule:nonzero;stroke:none"
             id="path204" /></g><g
           id="g206"
           transform="translate(160.7363,213.4941)"><path
             d="m 0,0 c 0,0 -6.405,-0.187 -9.698,-0.625 0.162,0.461 1.067,0.913 1.067,0.913 0,0 -4.954,-0.656 -6.106,-1.237 0.235,0.635 1.117,0.916 1.117,0.916 l -4.486,-1.133 c 1.511,2.743 7.199,4.46 8.335,4.308 -1.21,0.428 -2.955,0.429 -2.955,0.429 0,0 5.201,1.405 8.45,-0.976 -0.166,0.834 -1.401,1.649 -1.401,1.649 0,0 4.09,-0.575 5.677,-4.244"
             style="fill:#cea467;fill-opacity:1;fill-rule:nonzero;stroke:none"
             id="path208" /></g><g
           id="g210"
           transform="translate(160.7031,213.3359)"><path
             d="m 0,0 c 0,0 -5.327,3.562 -8.263,5.115 0.4,0.281 1.399,0.125 1.399,0.125 0,0 -4.417,2.338 -5.692,2.533 0.559,0.381 1.441,0.099 1.441,0.099 l -4.312,1.679 c 2.823,1.357 8.452,-0.542 9.289,-1.324 -0.737,1.05 -2.158,2.062 -2.158,2.062 0,0 5.051,-1.872 6.317,-5.695 0.349,0.775 -0.185,2.155 -0.185,2.155 0,0 2.999,-2.84 2.164,-6.749"
             style="fill:#cea467;fill-opacity:1;fill-rule:nonzero;stroke:none"
             id="path212" /></g><g
           id="g214"
           transform="translate(159.8701,212.6523)"><path
             d="M 0,0 C 0,0 1.655,6.19 2.838,9.294 2.352,9.243 1.704,8.466 1.704,8.466 c 0,0 1.778,4.671 2.608,5.658 C 3.641,14.042 3.164,13.247 3.164,13.247 l 2.134,4.107 c -3.017,-0.841 -5.996,-5.982 -6.109,-7.122 -0.139,1.276 0.262,2.974 0.262,2.974 0,0 -2.563,-4.738 -0.993,-8.447 -0.774,0.353 -1.283,1.742 -1.283,1.742 0,0 -0.381,-4.113 2.825,-6.501"
             style="fill:#cea467;fill-opacity:1;fill-rule:nonzero;stroke:none"
             id="path216" /></g><g
           id="g218"
           transform="translate(75.9873,159.4141)"><path
             d="m 0,0 c 0,0 1.122,41.965 -12.295,92.114 4.462,2.677 5.376,1.285 5.376,1.285 0,0 15.168,-61.121 17.399,-92.795 C 4.893,-2.854 0,0 0,0"
             style="fill:#cea467;fill-opacity:1;fill-rule:nonzero;stroke:none"
             id="path220" /></g><g
           id="g222"
           transform="translate(66.4043,248.2568)"><path
             d="m 0,0 c 0,0 -0.595,-16.953 0,-25.727 -1.191,0.506 -2.231,2.974 -2.231,2.974 0,0 0.893,-13.201 2.231,-16.341 -1.636,0.727 -2.231,3.106 -2.231,3.106 L 0,-48.033 c -6.99,4.461 -10.559,19.778 -9.964,22.753 -1.338,-3.123 -1.636,-7.734 -1.636,-7.734 0,0 -2.825,13.979 4.016,22.159 -2.231,-0.298 -4.594,-3.421 -4.594,-3.421 0,0 2.214,10.708 12.178,14.276"
             style="fill:#cea467;fill-opacity:1;fill-rule:nonzero;stroke:none"
             id="path224" /></g><g
           id="g226"
           transform="translate(68.333,250.9985)"><path
             d="m 0,0 c 0,0 -10.063,-13.657 -14.525,-21.235 -0.697,1.09 -0.162,3.714 -0.162,3.714 0,0 -6.716,-11.399 -7.384,-14.747 -0.94,1.523 -0.088,3.823 -0.088,3.823 l -4.96,-11.202 c -3.25,7.629 2.452,22.286 4.622,24.405 -2.868,-1.822 -5.716,-5.459 -5.716,-5.459 0,0 5.56,13.133 15.824,16.023 -2.009,1.013 -5.722,-0.231 -5.722,-0.231 0,0 7.872,7.588 18.111,4.909"
             style="fill:#cea467;fill-opacity:1;fill-rule:nonzero;stroke:none"
             id="path228" /></g><g
           id="g230"
           transform="translate(68.333,252)"><path
             d="m 0,0 c 0,0 -16.491,-3.976 -24.784,-6.903 0.168,1.282 2.266,2.947 2.266,2.947 0,0 -12.477,-4.402 -15.143,-6.534 0.261,1.77 2.394,2.982 2.394,2.982 l -11.006,-5.381 c 2.422,7.93 16.221,15.479 19.245,15.704 -3.368,0.451 -7.888,-0.5 -7.888,-0.5 0,0 12.708,6.474 22.423,2.079 -0.885,2.068 -4.528,3.506 -4.528,3.506 0,0 10.909,0.741 17.021,-7.9"
             style="fill:#cea467;fill-opacity:1;fill-rule:nonzero;stroke:none"
             id="path232" /></g><g
           id="g234"
           transform="translate(68.3325,251.5718)"><path
             d="m 0,0 c 0,0 -15.74,6.325 -24.194,8.749 0.882,0.948 3.556,1.086 3.556,1.086 0,0 -12.718,3.651 -16.126,3.46 1.24,1.291 3.68,1.041 3.68,1.041 l -12.087,1.999 c 6.573,5.056 22.191,3.203 24.785,1.632 -2.481,2.321 -6.716,4.168 -6.716,4.168 0,0 14.107,-2.096 19.473,-11.311 0.479,2.199 -1.655,5.483 -1.655,5.483 0,0 9.316,-5.724 9.284,-16.307"
             style="fill:#cea467;fill-opacity:1;fill-rule:nonzero;stroke:none"
             id="path236" /></g><g
           id="g238"
           transform="translate(68.4614,248.5918)"><path
             d="m 0,0 c 0,0 7.84,-15.043 11.083,-23.218 0.856,0.97 0.731,3.646 0.731,3.646 0,0 4.882,-12.298 5.027,-15.708 1.163,1.36 0.676,3.763 0.676,3.763 l 3.175,-11.832 c 4.386,7.037 1.009,22.399 -0.81,24.827 2.554,-2.243 4.808,-6.275 4.808,-6.275 0,0 -3.472,13.833 -13.169,18.268 2.141,0.692 5.619,-1.109 5.619,-1.109 0,0 -6.611,8.709 -17.14,7.638"
             style="fill:#cea467;fill-opacity:1;fill-rule:nonzero;stroke:none"
             id="path240" /></g><g
           id="g242"
           transform="translate(65.5396,250.2349)"><path
             d="m 0,0 c 0,0 14.964,-7.99 22.256,-12.907 0.159,1.284 -1.454,3.422 -1.454,3.422 0,0 10.972,-7.394 13.017,-10.127 0.192,1.779 -1.568,3.487 -1.568,3.487 l 9.302,-7.972 C 41.2,-15.812 29.74,-5.041 26.868,-4.063 c 3.373,-0.409 7.51,-2.465 7.51,-2.465 0,0 -10.675,9.457 -21.182,7.643 1.376,1.781 5.263,2.258 5.263,2.258 C 18.459,3.373 8.086,6.829 0,0"
             style="fill:#cea467;fill-opacity:1;fill-rule:nonzero;stroke:none"
             id="path244" /></g><g
           id="g246"
           transform="translate(65.1084,251.1387)"><path
             d="m 0,0 c 0,0 16.595,3.516 25.34,4.447 -0.705,1.085 -3.315,1.682 -3.315,1.682 0,0 13.157,1.403 16.481,0.628 -0.998,1.486 -3.445,1.66 -3.445,1.66 l 12.25,-0.115 c -5.602,6.113 -21.306,6.981 -24.133,5.881 2.845,1.859 7.334,2.948 7.334,2.948 0,0 -14.257,0.367 -21.13,-7.784 -0.093,2.248 2.575,5.115 2.575,5.115 C 11.957,14.462 1.793,10.431 0,0"
             style="fill:#cea467;fill-opacity:1;fill-rule:nonzero;stroke:none"
             id="path248" /></g><g
           id="g250"
           transform="translate(65.293,250.752)"><path
             d="m 0,0 c 0,0 11.48,12.489 18.064,18.318 -1.203,0.476 -3.676,-0.551 -3.676,-0.551 0,0 9.904,8.773 13.062,10.069 -1.675,0.631 -3.769,-0.645 -3.769,-0.645 l 10.047,7.01 c -8.11,1.732 -21.406,-6.669 -23.071,-9.204 1.24,3.163 4.265,6.654 4.265,6.654 0,0 -11.827,-7.969 -12.699,-18.596 -1.38,1.778 -0.869,5.661 -0.869,5.661 C 1.354,18.716 -4.588,9.538 0,0"
             style="fill:#cea467;fill-opacity:1;fill-rule:nonzero;stroke:none"
             id="path252" /></g><g
           id="g254"
           transform="translate(67.8628,249.5137)"><path
             d="m 0,0 c 0,0 -8.122,14.893 -13.102,22.141 1.283,0.171 3.435,-1.423 3.435,-1.423 0,0 -7.491,10.907 -10.242,12.927 1.778,0.208 3.501,-1.537 3.501,-1.537 l -8.054,9.231 c 8.287,-0.28 19.16,-11.645 20.162,-14.507 -0.438,3.369 -2.53,7.487 -2.53,7.487 0,0 9.551,-10.591 7.829,-21.113 1.768,1.391 2.211,5.282 2.211,5.282 C 3.21,18.488 6.757,8.146 0,0"
             style="fill:#cea467;fill-opacity:1;fill-rule:nonzero;stroke:none"
             id="path256" /></g>
          <g
           id="g262"
           transform="translate(142.7456,70.2285)"><path
             d="m 0,0 c 0,0 21.768,0.506 42.061,-2.884 20.293,-3.39 32.584,-8.718 57.675,-7.749 25.092,0.969 30.903,7.719 48.338,4.344 17.435,-3.375 61.021,1.35 66.833,0.924 -29.058,58.176 -44.074,94.982 -44.074,94.982 0,0 -49.395,0.895 -61.745,2.385 -12.349,1.489 -60.779,0 -60.779,0 z"
             style="fill:#f29846;fill-opacity:1;fill-rule:nonzero;stroke:none"
             id="path264" /></g><g
           id="g266"
           transform="translate(190.0767,157.7793)"><path
             d="m 0,0 -0.37,0.242 6.236,10.179 0.37,-0.242 z"
             style="fill:#f29846;fill-opacity:1;fill-rule:nonzero;stroke:none"
             id="path268" /></g><g
           id="g270"
           transform="translate(192.5308,157.7256)"><path
             d="M 0,0 -0.374,0.235 5.617,10.413 5.991,10.178 Z"
             style="fill:#f29846;fill-opacity:1;fill-rule:nonzero;stroke:none"
             id="path272" /></g><g
           id="g274"
           transform="translate(194.9844,157.6729)"><path
             d="M 0,0 -0.378,0.228 5.369,10.405 5.747,10.178 Z"
             style="fill:#f29846;fill-opacity:1;fill-rule:nonzero;stroke:none"
             id="path276" /></g><g
           id="g278"
           transform="translate(197.438,157.6182)"><path
             d="M 0,0 -0.382,0.222 5.12,10.399 5.502,10.179 Z"
             style="fill:#f29846;fill-opacity:1;fill-rule:nonzero;stroke:none"
             id="path280" /></g><g
           id="g282"
           transform="translate(199.8916,157.5654)"><path
             d="M 0,0 -0.386,0.213 4.872,10.391 5.257,10.178 Z"
             style="fill:#f29846;fill-opacity:1;fill-rule:nonzero;stroke:none"
             id="path284" /></g><g
           id="g286"
           transform="translate(202.3452,157.5117)"><path
             d="m 0,0 -0.39,0.205 5.013,10.178 0.39,-0.204 z"
             style="fill:#f29846;fill-opacity:1;fill-rule:nonzero;stroke:none"
             id="path288" /></g><g
           id="g290"
           transform="translate(204.7993,157.459)"><path
             d="M 0,0 -0.394,0.196 4.374,10.375 4.768,10.178 Z"
             style="fill:#f29846;fill-opacity:1;fill-rule:nonzero;stroke:none"
             id="path292" /></g><g
           id="g294"
           transform="translate(207.2524,157.4053)"><path
             d="M 0,0 -0.397,0.189 4.126,10.367 4.524,10.179 Z"
             style="fill:#f29846;fill-opacity:1;fill-rule:nonzero;stroke:none"
             id="path296" /></g><g
           id="g298"
           transform="translate(209.543,156.9648)"><path
             d="M 0,0 -0.401,0.181 4.041,10.746 4.442,10.565 Z"
             style="fill:#f29846;fill-opacity:1;fill-rule:nonzero;stroke:none"
             id="path300" /></g><g
           id="g302"
           transform="translate(211.8477,156.5127)"><path
             d="M 0,0 -0.405,0.172 3.942,11.137 4.347,10.965 Z"
             style="fill:#f29846;fill-opacity:1;fill-rule:nonzero;stroke:none"
             id="path304" /></g><g
           id="g306"
           transform="translate(214.2461,156.2617)"><path
             d="M 0,0 -0.409,0.162 3.749,11.326 4.157,11.163 Z"
             style="fill:#f29846;fill-opacity:1;fill-rule:nonzero;stroke:none"
             id="path308" /></g><g
           id="g310"
           transform="translate(216.6299,155.9424)"><path
             d="M 0,0 -0.412,0.152 3.57,11.583 3.982,11.43 Z"
             style="fill:#f29846;fill-opacity:1;fill-rule:nonzero;stroke:none"
             id="path312" /></g><g
           id="g314"
           transform="translate(218.8403,155.3018)"><path
             d="M 0,0 -0.414,0.146 3.566,12.163 3.98,12.017 Z"
             style="fill:#f29846;fill-opacity:1;fill-rule:nonzero;stroke:none"
             id="path316" /></g><g
           id="g318"
           transform="translate(221.3193,154.9141)"><path
             d="M 0,0 -0.418,0.135 3.292,12.487 3.71,12.354 Z"
             style="fill:#f29846;fill-opacity:1;fill-rule:nonzero;stroke:none"
             id="path320" /></g><g
           id="g322"
           transform="translate(223.501,154.9141)"><path
             d="M 0,0 -0.417,0.135 3.318,12.431 3.735,12.296 Z"
             style="fill:#f29846;fill-opacity:1;fill-rule:nonzero;stroke:none"
             id="path324" /></g><g
           id="g326"
           transform="translate(226.3589,154.9238)"><path
             d="m 0,0 -0.423,0.114 3.087,12.24 0.423,-0.115 z"
             style="fill:#f29846;fill-opacity:1;fill-rule:nonzero;stroke:none"
             id="path328" /></g><g
           id="g330"
           transform="translate(228.8745,154.9287)"><path
             d="M 0,0 -0.426,0.104 2.354,12.286 2.78,12.182 Z"
             style="fill:#f29846;fill-opacity:1;fill-rule:nonzero;stroke:none"
             id="path332" /></g><g
           id="g334"
           transform="translate(231.106,153.5576)"><path
             d="M 0,0 -0.428,0.094 2.329,13.595 2.757,13.501 Z"
             style="fill:#f29846;fill-opacity:1;fill-rule:nonzero;stroke:none"
             id="path336" /></g><g
           id="g338"
           transform="translate(233.8647,153.5664)"><path
             d="M 0,0 -0.432,0.076 1.775,13.52 2.207,13.443 Z"
             style="fill:#f29846;fill-opacity:1;fill-rule:nonzero;stroke:none"
             id="path340" /></g><g
           id="g342"
           transform="translate(236.0723,152.8213)"><path
             d="M 0,0 -0.432,0.072 1.775,14.206 2.207,14.134 Z"
             style="fill:#f29846;fill-opacity:1;fill-rule:nonzero;stroke:none"
             id="path344" /></g><g
           id="g346"
           transform="translate(238.7261,153.5742)"><path
             d="M 0,0 -0.434,0.061 1.327,13.39 1.761,13.329 Z"
             style="fill:#f29846;fill-opacity:1;fill-rule:nonzero;stroke:none"
             id="path348" /></g><g
           id="g350"
           transform="translate(241.2603,153.5791)"><path
             d="M 0,0 -0.435,0.051 1,13.323 1.435,13.272 Z"
             style="fill:#f29846;fill-opacity:1;fill-rule:nonzero;stroke:none"
             id="path352" /></g><g
           id="g354"
           transform="translate(243.7363,152.9326)"><path
             d="M 0,0 -0.436,0.039 0.73,13.906 1.166,13.867 Z"
             style="fill:#f29846;fill-opacity:1;fill-rule:nonzero;stroke:none"
             id="path356" /></g><g
           id="g358"
           transform="translate(246.499,153.5937)"><path
             d="M 0,0 -0.437,0.022 0.174,13.179 0.611,13.157 Z"
             style="fill:#f29846;fill-opacity:1;fill-rule:nonzero;stroke:none"
             id="path360" /></g><g
           id="g362"
           transform="translate(248.8452,153.5967)"><path
             d="M 0,0 -0.437,0.017 0.035,13.116 0.472,13.1 Z"
             style="fill:#f29846;fill-opacity:1;fill-rule:nonzero;stroke:none"
             id="path364" /></g><g
           id="g366"
           transform="translate(251.3682,153.6025)"><path
             d="m 0,0 -0.437,0.005 0.156,13.043 0.437,-0.006 z"
             style="fill:#f29846;fill-opacity:1;fill-rule:nonzero;stroke:none"
             id="path368" /></g><g
           id="g370"
           transform="translate(253.4502,153.6025)"><path
             d="M 0,0 -0.156,12.985 0.281,12.99 0.437,0.005 Z"
             style="fill:#f29846;fill-opacity:1;fill-rule:nonzero;stroke:none"
             id="path372" /></g><g
           id="g374"
           transform="translate(255.9678,153.5967)"><path
             d="M 0,0 -0.466,12.928 -0.029,12.944 0.437,0.017 Z"
             style="fill:#f29846;fill-opacity:1;fill-rule:nonzero;stroke:none"
             id="path376" /></g><g
           id="g378"
           transform="translate(258.4824,153.5908)"><path
             d="M 0,0 -0.773,12.871 -0.337,12.899 0.437,0.028 Z"
             style="fill:#f29846;fill-opacity:1;fill-rule:nonzero;stroke:none"
             id="path380" /></g><g
           id="g382"
           transform="translate(260.9209,154.46)"><path
             d="m 0,0 -1.004,11.939 0.436,0.04 1.004,-11.94 z"
             style="fill:#f29846;fill-opacity:1;fill-rule:nonzero;stroke:none"
             id="path384" /></g><g
           id="g386"
           transform="translate(263.3301,155.1846)"><path
             d="M 0,0 -1.206,11.151 -0.771,11.202 0.435,0.051 Z"
             style="fill:#f29846;fill-opacity:1;fill-rule:nonzero;stroke:none"
             id="path388" /></g><g
           id="g390"
           transform="translate(265.8057,155.1221)"><path
             d="M 0,0 -1.474,11.151 -1.04,11.213 0.434,0.062 Z"
             style="fill:#f29846;fill-opacity:1;fill-rule:nonzero;stroke:none"
             id="path392" /></g><g
           id="g394"
           transform="translate(268.2998,154.9453)"><path
             d="m 0,0 -1.76,11.266 0.432,0.072 1.76,-11.266 z"
             style="fill:#f29846;fill-opacity:1;fill-rule:nonzero;stroke:none"
             id="path396" /></g><g
           id="g398"
           transform="translate(270.582,155.9697)"><path
             d="M 0,0 -1.834,10.178 -1.403,10.261 0.43,0.083 Z"
             style="fill:#f29846;fill-opacity:1;fill-rule:nonzero;stroke:none"
             id="path400" /></g><g
           id="g402"
           transform="translate(273.0352,155.9072)"><path
             d="M 0,0 -2.079,10.179 -1.65,10.272 0.428,0.094 Z"
             style="fill:#f29846;fill-opacity:1;fill-rule:nonzero;stroke:none"
             id="path404" /></g><g
           id="g406"
           transform="translate(275.4873,155.8447)"><path
             d="M 0,0 -2.322,10.178 -1.896,10.282 0.426,0.104 Z"
             style="fill:#f29846;fill-opacity:1;fill-rule:nonzero;stroke:none"
             id="path408" /></g><g
           id="g410"
           transform="translate(277.9404,155.7832)"><path
             d="M 0,0 -2.567,10.178 -2.145,10.292 0.423,0.114 Z"
             style="fill:#f29846;fill-opacity:1;fill-rule:nonzero;stroke:none"
             id="path412" /></g><g
           id="g414"
           transform="translate(280.3936,155.7207)"><path
             d="m 0,0 -2.812,10.178 0.42,0.124 L 0.42,0.124 Z"
             style="fill:#f29846;fill-opacity:1;fill-rule:nonzero;stroke:none"
             id="path416" /></g><g
           id="g418"
           transform="translate(282.8467,155.6582)"><path
             d="M 0,0 -3.057,10.178 -2.639,10.313 0.418,0.134 Z"
             style="fill:#f29846;fill-opacity:1;fill-rule:nonzero;stroke:none"
             id="path420" /></g><g
           id="g422"
           transform="translate(285.2998,155.5957)"><path
             d="M 0,0 -3.302,10.179 -2.887,10.322 0.415,0.145 Z"
             style="fill:#f29846;fill-opacity:1;fill-rule:nonzero;stroke:none"
             id="path424" /></g><g
           id="g426"
           transform="translate(287.7529,155.5342)"><path
             d="M 0,0 -3.546,10.178 -3.134,10.331 0.412,0.153 Z"
             style="fill:#f29846;fill-opacity:1;fill-rule:nonzero;stroke:none"
             id="path428" /></g><g
           id="g430"
           transform="translate(290.2061,155.4727)"><path
             d="m 0,0 -3.79,10.178 0.408,0.163 3.79,-10.179 z"
             style="fill:#f29846;fill-opacity:1;fill-rule:nonzero;stroke:none"
             id="path432" /></g><g
           id="g434"
           transform="translate(292.6592,155.4102)"><path
             d="M 0,0 -4.034,10.179 -3.63,10.35 0.405,0.172 Z"
             style="fill:#f29846;fill-opacity:1;fill-rule:nonzero;stroke:none"
             id="path436" /></g><g
           id="g438"
           transform="translate(295.1133,155.3486)"><path
             d="m 0,0 -4.28,10.178 0.402,0.18 4.279,-10.177 z"
             style="fill:#f29846;fill-opacity:1;fill-rule:nonzero;stroke:none"
             id="path440" /></g><g
           id="g442"
           transform="translate(297.5664,155.2871)"><path
             d="M 0,0 -4.523,10.179 -4.126,10.367 0.397,0.189 Z"
             style="fill:#f29846;fill-opacity:1;fill-rule:nonzero;stroke:none"
             id="path444" /></g><g
           id="g446"
           transform="translate(300.0205,155.2256)"><path
             d="M 0,0 -4.769,10.179 -4.375,10.375 0.394,0.197 Z"
             style="fill:#f29846;fill-opacity:1;fill-rule:nonzero;stroke:none"
             id="path448" /></g><g
           id="g450"
           transform="translate(302.4736,155.165)"><path
             d="m 0,0 -5.013,10.178 0.39,0.205 L 0.39,0.205 Z"
             style="fill:#f29846;fill-opacity:1;fill-rule:nonzero;stroke:none"
             id="path452" /></g><g
           id="g454"
           transform="translate(304.9268,155.1035)"><path
             d="M 0,0 -5.257,10.178 -4.871,10.391 0.387,0.213 Z"
             style="fill:#f29846;fill-opacity:1;fill-rule:nonzero;stroke:none"
             id="path456" /></g><g
           id="g458"
           transform="translate(307.3809,155.042)"><path
             d="M 0,0 -5.502,10.178 -5.12,10.399 0.383,0.221 Z"
             style="fill:#f29846;fill-opacity:1;fill-rule:nonzero;stroke:none"
             id="path460" /></g><g
           id="g462"
           transform="translate(309.835,154.9814)"><path
             d="M 0,0 -5.747,10.178 -5.369,10.406 0.378,0.229 Z"
             style="fill:#f29846;fill-opacity:1;fill-rule:nonzero;stroke:none"
             id="path464" /></g><g
           id="g466"
           transform="translate(312.2891,154.9209)"><path
             d="M 0,0 -5.991,10.178 -5.618,10.413 0.373,0.234 Z"
             style="fill:#f29846;fill-opacity:1;fill-rule:nonzero;stroke:none"
             id="path468" /></g><g
           id="g470"
           transform="translate(314.7422,154.8604)"><path
             d="M 0,0 -6.235,10.178 -5.865,10.42 0.37,0.242 Z"
             style="fill:#f29846;fill-opacity:1;fill-rule:nonzero;stroke:none"
             id="path472" /></g><g
           id="g474"
           transform="translate(134.6997,53.6963)"><path
             d="M 0,0 -0.686,0.435 10.885,18.704 11.571,18.27 Z"
             style="fill:#f29846;fill-opacity:1;fill-rule:nonzero;stroke:none"
             id="path476" /></g><g
           id="g478"
           transform="translate(139.2529,53.5996)"><path
             d="M 0,0 -0.694,0.422 10.423,18.691 11.117,18.27 Z"
             style="fill:#f29846;fill-opacity:1;fill-rule:nonzero;stroke:none"
             id="path480" /></g><g
           id="g482"
           transform="translate(143.8062,53.5039)"><path
             d="M 0,0 -0.701,0.409 9.962,18.679 10.663,18.27 Z"
             style="fill:#f29846;fill-opacity:1;fill-rule:nonzero;stroke:none"
             id="path484" /></g><g
           id="g486"
           transform="translate(148.3589,53.4072)"><path
             d="M 0,0 -0.708,0.396 9.501,18.666 10.21,18.27 Z"
             style="fill:#f29846;fill-opacity:1;fill-rule:nonzero;stroke:none"
             id="path488" /></g><g
           id="g490"
           transform="translate(152.9121,53.3115)"><path
             d="M 0,0 -0.716,0.383 9.04,18.652 9.756,18.27 Z"
             style="fill:#f29846;fill-opacity:1;fill-rule:nonzero;stroke:none"
             id="path492" /></g><g
           id="g494"
           transform="translate(157.4653,53.2158)"><path
             d="M 0,0 -0.724,0.368 8.578,18.638 9.302,18.27 Z"
             style="fill:#f29846;fill-opacity:1;fill-rule:nonzero;stroke:none"
             id="path496" /></g><g
           id="g498"
           transform="translate(162.0186,53.1201)"><path
             d="M 0,0 -0.731,0.354 8.117,18.623 8.848,18.27 Z"
             style="fill:#f29846;fill-opacity:1;fill-rule:nonzero;stroke:none"
             id="path500" /></g><g
           id="g502"
           transform="translate(166.5708,53.0244)"><path
             d="M 0,0 -0.737,0.34 7.657,18.609 8.395,18.27 Z"
             style="fill:#f29846;fill-opacity:1;fill-rule:nonzero;stroke:none"
             id="path504" /></g><g
           id="g506"
           transform="translate(170.8213,52.2344)"><path
             d="M 0,0 -0.745,0.323 7.499,19.288 8.243,18.965 Z"
             style="fill:#f29846;fill-opacity:1;fill-rule:nonzero;stroke:none"
             id="path508" /></g><g
           id="g510"
           transform="translate(175.0977,51.4219)"><path
             d="M 0,0 -0.751,0.308 7.314,19.99 8.066,19.683 Z"
             style="fill:#f29846;fill-opacity:1;fill-rule:nonzero;stroke:none"
             id="path512" /></g><g
           id="g514"
           transform="translate(179.5483,50.9707)"><path
             d="M 0,0 -0.758,0.292 6.956,20.331 7.714,20.039 Z"
             style="fill:#f29846;fill-opacity:1;fill-rule:nonzero;stroke:none"
             id="path516" /></g><g
           id="g518"
           transform="translate(183.9717,50.3975)"><path
             d="M 0,0 -0.764,0.274 6.625,20.792 7.389,20.518 Z"
             style="fill:#f29846;fill-opacity:1;fill-rule:nonzero;stroke:none"
             id="path520" /></g><g
           id="g522"
           transform="translate(188.0732,49.249)"><path
             d="m 0,0 -0.769,0.263 7.386,21.57 0.768,-0.264 z"
             style="fill:#f29846;fill-opacity:1;fill-rule:nonzero;stroke:none"
             id="path524" /></g><g
           id="g526"
           transform="translate(192.6733,48.5527)"><path
             d="M 0,0 -0.775,0.241 6.109,22.415 6.884,22.174 Z"
             style="fill:#f29846;fill-opacity:1;fill-rule:nonzero;stroke:none"
             id="path528" /></g><g
           id="g530"
           transform="translate(196.7217,48.5518)"><path
             d="M 0,0 -0.775,0.242 6.157,22.314 6.931,22.071 Z"
             style="fill:#f29846;fill-opacity:1;fill-rule:nonzero;stroke:none"
             id="path532" /></g><g
           id="g534"
           transform="translate(202.0249,48.5703)"><path
             d="M 0,0 -0.786,0.205 4.943,22.174 5.729,21.969 Z"
             style="fill:#f29846;fill-opacity:1;fill-rule:nonzero;stroke:none"
             id="path536" /></g><g
           id="g538"
           transform="translate(206.6929,48.5791)"><path
             d="m 0,0 -0.791,0.187 5.16,21.866 0.79,-0.187 z"
             style="fill:#f29846;fill-opacity:1;fill-rule:nonzero;stroke:none"
             id="path540" /></g><g
           id="g542"
           transform="translate(210.8335,46.1182)"><path
             d="M 0,0 -0.794,0.168 4.322,24.402 5.116,24.234 Z"
             style="fill:#f29846;fill-opacity:1;fill-rule:nonzero;stroke:none"
             id="path544" /></g><g
           id="g546"
           transform="translate(215.9526,46.1338)"><path
             d="M 0,0 -0.801,0.137 3.295,24.268 4.096,24.131 Z"
             style="fill:#f29846;fill-opacity:1;fill-rule:nonzero;stroke:none"
             id="path548" /></g><g
           id="g550"
           transform="translate(220.0488,44.7959)"><path
             d="M 0,0 -0.802,0.131 3.293,25.5 4.095,25.37 Z"
             style="fill:#f29846;fill-opacity:1;fill-rule:nonzero;stroke:none"
             id="path552" /></g><g
           id="g554"
           transform="translate(224.9731,46.1475)"><path
             d="M 0,0 -0.805,0.109 2.463,24.035 3.268,23.926 Z"
             style="fill:#f29846;fill-opacity:1;fill-rule:nonzero;stroke:none"
             id="path556" /></g><g
           id="g558"
           transform="translate(229.6758,46.1572)"><path
             d="m 0,0 -0.808,0.09 2.663,23.823 0.807,-0.09 z"
             style="fill:#f29846;fill-opacity:1;fill-rule:nonzero;stroke:none"
             id="path560" /></g><g
           id="g562"
           transform="translate(234.271,44.9961)"><path
             d="m 0,0 -0.809,0.069 2.163,24.892 0.81,-0.069 z"
             style="fill:#f29846;fill-opacity:1;fill-rule:nonzero;stroke:none"
             id="path564" /></g><g
           id="g566"
           transform="translate(239.397,46.1826)"><path
             d="M 0,0 -0.812,0.039 0.323,23.656 1.134,23.617 Z"
             style="fill:#f29846;fill-opacity:1;fill-rule:nonzero;stroke:none"
             id="path568" /></g><g
           id="g570"
           transform="translate(243.751,46.1875)"><path
             d="m 0,0 -0.812,0.029 0.876,23.516 0.811,-0.03 z"
             style="fill:#f29846;fill-opacity:1;fill-rule:nonzero;stroke:none"
             id="path572" /></g><g
           id="g574"
           transform="translate(248.4321,46.1973)"><path
             d="m 0,0 -0.812,0.01 0.291,23.412 0.812,-0.01 z"
             style="fill:#f29846;fill-opacity:1;fill-rule:nonzero;stroke:none"
             id="path576" /></g><g
           id="g578"
           transform="translate(252.2959,46.1973)"><path
             d="M 0,0 -0.29,23.31 0.522,23.319 0.812,0.01 Z"
             style="fill:#f29846;fill-opacity:1;fill-rule:nonzero;stroke:none"
             id="path580" /></g><g
           id="g582"
           transform="translate(256.9668,46.1875)"><path
             d="m 0,0 -0.864,23.206 0.81,0.03 0.866,-23.207 z"
             style="fill:#f29846;fill-opacity:1;fill-rule:nonzero;stroke:none"
             id="path584" /></g><g
           id="g586"
           transform="translate(261.6328,46.1768)"><path
             d="m 0,0 -1.435,23.104 0.811,0.05 1.435,-23.103 z"
             style="fill:#f29846;fill-opacity:1;fill-rule:nonzero;stroke:none"
             id="path588" /></g><g
           id="g590"
           transform="translate(266.1572,47.7383)"><path
             d="M 0,0 -1.862,21.43 -1.054,21.5 0.81,0.069 Z"
             style="fill:#f29846;fill-opacity:1;fill-rule:nonzero;stroke:none"
             id="path592" /></g><g
           id="g594"
           transform="translate(270.6279,49.0381)"><path
             d="M 0,0 -2.237,20.017 -1.43,20.107 0.808,0.091 Z"
             style="fill:#f29846;fill-opacity:1;fill-rule:nonzero;stroke:none"
             id="path596" /></g><g
           id="g598"
           transform="translate(275.2227,48.9258)"><path
             d="M 0,0 -2.734,20.018 -1.93,20.127 0.804,0.109 Z"
             style="fill:#f29846;fill-opacity:1;fill-rule:nonzero;stroke:none"
             id="path600" /></g><g
           id="g602"
           transform="translate(279.8506,48.6084)"><path
             d="m 0,0 -3.265,20.222 0.801,0.13 L 0.801,0.13 Z"
             style="fill:#f29846;fill-opacity:1;fill-rule:nonzero;stroke:none"
             id="path604" /></g><g
           id="g606"
           transform="translate(284.085,50.4473)"><path
             d="m 0,0 -3.402,18.27 0.798,0.149 3.402,-18.27 z"
             style="fill:#f29846;fill-opacity:1;fill-rule:nonzero;stroke:none"
             id="path608" /></g><g
           id="g610"
           transform="translate(288.6367,50.3359)"><path
             d="M 0,0 -3.856,18.27 -3.063,18.437 0.795,0.168 Z"
             style="fill:#f29846;fill-opacity:1;fill-rule:nonzero;stroke:none"
             id="path612" /></g><g
           id="g614"
           transform="translate(293.1885,50.2236)"><path
             d="m 0,0 -4.311,18.27 0.79,0.186 L 0.79,0.187 Z"
             style="fill:#f29846;fill-opacity:1;fill-rule:nonzero;stroke:none"
             id="path616" /></g><g
           id="g618"
           transform="translate(297.7402,50.1123)"><path
             d="m 0,0 -4.765,18.27 0.786,0.204 4.764,-18.27 z"
             style="fill:#f29846;fill-opacity:1;fill-rule:nonzero;stroke:none"
             id="path620" /></g><g
           id="g622"
           transform="translate(302.292,50)"><path
             d="M 0,0 -5.218,18.27 -4.437,18.493 0.78,0.224 Z"
             style="fill:#f29846;fill-opacity:1;fill-rule:nonzero;stroke:none"
             id="path624" /></g><g
           id="g626"
           transform="translate(306.8428,49.8877)"><path
             d="m 0,0 -5.672,18.27 0.776,0.241 5.671,-18.27 z"
             style="fill:#f29846;fill-opacity:1;fill-rule:nonzero;stroke:none"
             id="path628" /></g><g
           id="g630"
           transform="translate(311.3965,49.7764)"><path
             d="m 0,0 -6.127,18.27 0.77,0.258 6.126,-18.269 z"
             style="fill:#f29846;fill-opacity:1;fill-rule:nonzero;stroke:none"
             id="path632" /></g><g
           id="g634"
           transform="translate(315.9473,49.666)"><path
             d="m 0,0 -6.579,18.27 0.764,0.274 6.58,-18.27 z"
             style="fill:#f29846;fill-opacity:1;fill-rule:nonzero;stroke:none"
             id="path636" /></g><g
           id="g638"
           transform="translate(320.5,49.5547)"><path
             d="m 0,0 -7.033,18.27 0.758,0.292 7.033,-18.27 z"
             style="fill:#f29846;fill-opacity:1;fill-rule:nonzero;stroke:none"
             id="path640" /></g><g
           id="g642"
           transform="translate(325.0527,49.4434)"><path
             d="M 0,0 -7.487,18.27 -6.735,18.577 0.751,0.308 Z"
             style="fill:#f29846;fill-opacity:1;fill-rule:nonzero;stroke:none"
             id="path644" /></g><g
           id="g646"
           transform="translate(329.6055,49.333)"><path
             d="m 0,0 -7.941,18.27 0.745,0.323 7.941,-18.27 z"
             style="fill:#f29846;fill-opacity:1;fill-rule:nonzero;stroke:none"
             id="path648" /></g><g
           id="g650"
           transform="translate(334.1582,49.2227)"><path
             d="M 0,0 -8.395,18.27 -7.657,18.608 0.738,0.339 Z"
             style="fill:#f29846;fill-opacity:1;fill-rule:nonzero;stroke:none"
             id="path652" /></g><g
           id="g654"
           transform="translate(338.7109,49.1123)"><path
             d="M 0,0 -8.849,18.27 -8.117,18.623 0.731,0.354 Z"
             style="fill:#f29846;fill-opacity:1;fill-rule:nonzero;stroke:none"
             id="path656" /></g><g
           id="g658"
           transform="translate(343.2637,49.0029)"><path
             d="m 0,0 -9.302,18.27 0.724,0.368 9.302,-18.27 z"
             style="fill:#f29846;fill-opacity:1;fill-rule:nonzero;stroke:none"
             id="path660" /></g><g
           id="g662"
           transform="translate(347.8164,48.8926)"><path
             d="M 0,0 -9.756,18.27 -9.039,18.651 0.717,0.382 Z"
             style="fill:#f29846;fill-opacity:1;fill-rule:nonzero;stroke:none"
             id="path664" /></g><g
           id="g666"
           transform="translate(352.3701,48.7822)"><path
             d="m 0,0 -10.21,18.27 0.709,0.396 10.21,-18.27 z"
             style="fill:#f29846;fill-opacity:1;fill-rule:nonzero;stroke:none"
             id="path668" /></g><g
           id="g670"
           transform="translate(356.9238,48.6738)"><path
             d="M 0,0 -10.664,18.27 -9.963,18.679 0.7,0.409 Z"
             style="fill:#f29846;fill-opacity:1;fill-rule:nonzero;stroke:none"
             id="path672" /></g><g
           id="g674"
           transform="translate(361.4766,48.5645)"><path
             d="m 0,0 -11.117,18.27 0.693,0.421 L 0.693,0.422 Z"
             style="fill:#f29846;fill-opacity:1;fill-rule:nonzero;stroke:none"
             id="path676" /></g><g
           id="g678"
           transform="translate(366.0293,48.4561)"><path
             d="m 0,0 -11.571,18.27 0.686,0.434 L 0.687,0.435 Z"
             style="fill:#f29846;fill-opacity:1;fill-rule:nonzero;stroke:none"
             id="path680" /></g><g
           id="g682"
           transform="translate(167.2495,86.4326)"><path
             d="m 0,0 c 4.936,-0.033 15.68,-0.349 28.143,-2.227 4.973,-0.749 9.368,-1.619 13.617,-2.46 10.183,-2.016 19.799,-3.92 34.627,-3.407 9.142,0.32 15.111,1.455 20.376,2.456 6.789,1.292 12.153,2.314 20.712,0.819 10.075,-1.76 28.395,-0.562 40.516,0.233 3.299,0.216 6.027,0.395 7.996,0.473 -13.026,36.295 -24.413,63.001 -26.813,68.555 -7.361,0.118 -45.487,0.765 -55.045,1.804 -9.244,1.005 -46.787,0.183 -53.817,0.017 z m 71.531,-11.812 c -12.496,0 -21.259,1.736 -30.477,3.562 -4.209,0.833 -8.561,1.695 -13.452,2.433 -16.738,2.52 -30.25,2.172 -30.386,2.171 l -2.916,-0.083 33.653,73.568 1.133,0.028 c 1.834,0.046 45.034,1.122 55.437,-0.01 10.199,-1.11 55.422,-1.794 55.877,-1.8 l 1.167,-0.018 0.47,-1.068 c 0.13,-0.297 13.218,-30.181 28.231,-72.268 l 0.93,-2.604 -2.759,0.182 c -1.349,0.088 -5.454,-0.18 -10.211,-0.491 -12.296,-0.805 -30.874,-2.02 -41.378,-0.187 -7.91,1.379 -12.732,0.461 -19.407,-0.808 -5.128,-0.977 -11.509,-2.19 -20.93,-2.518 -1.727,-0.06 -3.386,-0.089 -4.982,-0.089"
             style="fill:#ffd385;fill-opacity:1;fill-rule:nonzero;stroke:none"
             id="path684" /></g><g
           id="g686"><g
             id="g688" /><g
             id="g700"><g
               clip-path="url(#clipPath692)"
               id="g698"><g
                 transform="translate(197.2397,140.8545)"
                 id="g696"><path
                   d="m 0,0 c 0,0 -9.175,-8.069 -8.861,-17.15 0.315,-9.08 -2.046,-21.248 12.846,-28.876 14.892,-7.628 12.713,-2.542 21.612,-7.81 8.899,-5.267 16.771,-5.892 19.645,-7.305 2.875,-1.412 11.652,-2.078 15.709,-3.894 4.055,-1.816 4.903,1.742 6.78,1.446 1.876,-0.296 2.724,-2.415 4.601,-2.535 1.876,-0.121 0.726,-0.727 3.208,-1.998 2.482,-1.272 1.877,-0.727 4.177,-2.24 2.3,-1.514 12.35,-1.09 18.525,3.451 6.175,4.54 11.895,10.624 11.441,14.165 -0.454,3.542 -4.994,3.376 -4.631,4.684 0.363,1.309 7.718,5.124 7.718,11.117 0,5.993 -1.181,14.619 -5.357,17.434 C 103.236,-16.696 0,0 0,0"
                   style="fill:#efcdb1;fill-opacity:1;fill-rule:nonzero;stroke:none"
                   id="path694" /></g></g></g></g><g
           id="g702"
           transform="translate(233.6572,308.9653)"><path
             d="m 0,0 c 0,0 -1.592,1.194 -3.317,0.796 -1.725,-0.398 -0.068,-8.624 2.189,-10.813 2.255,-2.189 4.776,-1.128 4.909,0 C 3.914,-8.889 0,0 0,0"
             style="fill:#eeb294;fill-opacity:1;fill-rule:nonzero;stroke:none"
             id="path704" /></g><g
           id="g706"
           transform="translate(271.9873,308.9653)"><path
             d="m 0,0 c 0,0 1.592,1.194 3.316,0.796 1.725,-0.398 0.069,-8.624 -2.188,-10.813 -2.256,-2.189 -4.776,-1.128 -4.909,0 C -3.914,-8.889 0,0 0,0"
             style="fill:#eeb294;fill-opacity:1;fill-rule:nonzero;stroke:none"
             id="path708" /></g><g
           id="g710"
           transform="translate(239.0967,294.2388)"><path
             d="m 0,0 c 0,0 1.283,-8.535 -0.84,-16.672 h 28.303 c 0,0 -1.769,10.702 0.531,18.573 C 23.306,0.751 0,0 0,0"
             style="fill:#eeb294;fill-opacity:1;fill-rule:nonzero;stroke:none"
             id="path712" /></g><g
           id="g714"
           transform="translate(233.6572,308.9653)"><path
             d="m 0,0 c 0,0 -0.133,-5.705 2.056,-10.349 2.19,-4.643 3.649,-8.49 6.435,-9.883 2.786,-1.393 15.124,-2.322 19.437,-0.399 4.311,1.924 9.775,12.737 10.526,19.769 C 27.463,0.663 0,0 0,0"
             style="fill:#663a16;fill-opacity:1;fill-rule:nonzero;stroke:none"
             id="path716" /></g><g
           id="g718"
           transform="translate(252.2314,291.541)"><path
             d="m 0,0 c 0,0 10.79,-1.238 17.158,8.845 6.369,10.083 6.546,24.057 -3.714,32.725 -10.26,8.668 -25.65,1.946 -30.426,-6.545 -4.776,-8.491 -2.83,-24.234 2.476,-29.011 C -9.199,1.238 -5.661,0.531 0,0"
             style="fill:#ededed;fill-opacity:1;fill-rule:nonzero;stroke:none"
             id="path720" /></g><g
           id="g726"
           transform="translate(197.3081,285.438)"><path
             d="m 0,0 c 0,0 3.638,8.756 7.57,10.702 3.932,1.946 3.785,0.619 3.736,0 -0.049,-0.619 -4.277,-2.078 -5.849,-7.739 2.064,3.626 5.259,6.943 7.028,7.739 1.77,0.796 2.655,-0.353 2.262,-1.105 C 14.354,8.845 9.635,6.457 8.603,0.266 9.536,2.344 11.257,6.236 13.96,8.182 15.14,9.066 15.926,7.828 15.189,6.766 14.452,5.705 11.945,3.494 10.667,-2.255 11.847,0.088 12.437,3.45 14.23,4.887 15.263,5.396 15.459,4.4 14.845,2.941 14.23,1.481 11.502,-4.046 12.019,-7.872 12.535,-11.697 9.807,-18.928 9.807,-18.928 L 9.585,-21.25 H 3.244 Z"
             style="fill:#eeb294;fill-opacity:1;fill-rule:nonzero;stroke:none"
             id="path728" /></g><g
           id="g730"
           transform="translate(196.3252,261.292)"><path
             d="M 0,0 C 0,0 3.146,7.076 0,12.913 -3.146,18.75 -0.787,23.438 -1.573,27.861 -2.359,32.283 1.18,30.514 1.868,28.922 2.556,27.33 1.081,25.738 3.539,22.643 5.997,19.547 8.16,11.232 8.16,9.287 8.16,7.341 7.472,2.476 7.472,2.476 Z"
             style="fill:#e8a080;fill-opacity:1;fill-rule:nonzero;stroke:none"
             id="path732" /></g><g
           id="g734"
           transform="translate(310.8652,285.438)"><path
             d="m 0,0 c 0,0 -3.762,8.756 -7.828,10.702 -4.066,1.946 -3.913,0.619 -3.862,0 0.05,-0.619 4.421,-2.078 6.048,-7.739 -2.134,3.626 -5.439,6.943 -7.268,7.739 -1.83,0.796 -2.745,-0.353 -2.339,-1.105 0.407,-0.752 5.286,-3.14 6.353,-9.331 -0.964,2.078 -2.744,5.97 -5.54,7.916 -1.219,0.884 -2.033,-0.354 -1.27,-1.416 0.763,-1.061 3.354,-3.272 4.676,-9.021 -1.22,2.343 -1.829,5.705 -3.685,7.142 -1.067,0.509 -1.27,-0.487 -0.636,-1.946 0.636,-1.46 3.457,-6.987 2.923,-10.813 -0.533,-3.825 2.287,-11.056 2.287,-11.056 l 0.229,-2.322 h 6.558 z"
             style="fill:#eeb294;fill-opacity:1;fill-rule:nonzero;stroke:none"
             id="path736" /></g><g
           id="g738"
           transform="translate(311.8818,261.292)"><path
             d="m 0,0 c 0,0 -3.253,7.076 0,12.913 3.253,5.837 0.813,10.525 1.627,14.948 0.812,4.422 -2.847,2.653 -3.559,1.061 -0.712,-1.592 0.814,-3.184 -1.728,-6.279 -2.541,-3.096 -4.778,-11.411 -4.778,-13.356 0,-1.946 0.712,-6.811 0.712,-6.811 z"
             style="fill:#e8a080;fill-opacity:1;fill-rule:nonzero;stroke:none"
             id="path740" /></g><g
           id="g742"
           transform="translate(204.2925,265.1836)"><path
             d="m 0,0 c 0,0 -7.783,0.354 -10.437,-1.769 -0.53,-9.199 0.177,-11.675 -3.361,-16.628 -3.538,-4.954 -9.791,-19.014 -5.338,-30.116 C -4.422,-36.264 0,0 0,0"
             style="fill:#edcc40;fill-opacity:1;fill-rule:nonzero;stroke:none"
             id="path744" /></g><g
           id="g746"
           transform="translate(299.3301,265.2056)"><path
             d="m 0,0 c 0,0 12.666,0.332 15.319,-1.791 0.532,-9.199 -0.176,-11.675 3.362,-16.628 3.538,-4.954 9.791,-19.014 5.338,-30.116 C 9.305,-36.286 0,0 0,0"
             style="fill:#edcc40;fill-opacity:1;fill-rule:nonzero;stroke:none"
             id="path748" /></g><g
           id="g750"
           transform="translate(239.8486,96.9561)"><path
             d="M 0,0 C 0,0 36.264,-8.463 52.185,-4.748 68.104,-1.033 68.636,7.694 67.309,18.839 65.982,29.983 61.35,42.587 58.021,45.904 54.694,49.221 0,0 0,0"
             style="fill:#4a3852;fill-opacity:1;fill-rule:nonzero;stroke:none"
             id="path752" /></g><g
           id="g754"
           transform="translate(216.2773,108.498)"><path
             d="m 0,0 c 0,0 -6.501,-3.715 -4.378,-8.756 2.123,-5.042 9.685,-8.094 16.186,-11.808 6.501,-3.715 12.206,-7.032 21.492,-8.093 4.644,-1.195 7.43,-4.378 10.348,-1.725 2.919,2.653 -2.188,4.577 -4.643,5.24 -2.454,0.664 -0.132,1.593 0.995,1.128 1.128,-0.464 2.322,-2.985 5.705,-3.183 3.384,-0.199 3.449,3.183 2.455,4.046 -0.995,0.862 -3.384,1.923 -5.44,2.388 -2.056,0.464 -1.26,1.526 0.066,0.994 1.327,-0.53 1.98,-1.856 5.932,-2.122 3.953,-0.265 4.815,3.051 3.82,3.98 -0.995,0.929 -4.843,0.929 -6.567,1.659 -1.725,0.73 0.133,0.929 0.596,0.862 0.465,-0.066 2.72,-1.061 5.175,-1.061 2.454,0 5.837,1.194 5.44,4.245 -0.399,3.052 -2.389,2.72 -6.104,3.582 C 47.363,-7.762 0,0 0,0"
             style="fill:#efac8e;fill-opacity:1;fill-rule:nonzero;stroke:none"
             id="path756" /></g><g
           id="g758"
           transform="translate(232.4619,90.1064)"><path
             d="m 0,0 c 12.35,-5.085 23.973,7.991 37.775,5.812 1.138,-0.379 2.071,-0.965 2.709,-1.844 0.415,0.592 0.629,1.323 0.513,2.218 -0.398,3.051 -2.389,2.719 -6.103,3.582 -3.715,0.862 -51.079,8.624 -51.079,8.624 0,0 -4.828,-2.763 -4.799,-6.756 4.026,-3.187 8.98,-4.002 14.446,-5.824 C -4.359,5.085 -2.179,0.727 0,0"
             style="fill:#e8987c;fill-opacity:1;fill-rule:nonzero;stroke:none"
             id="path760" /></g><g
           id="g762"
           transform="translate(258.4932,95.6289)"><path
             d="M 0,0 C 0,0 -2.422,-7.702 -10.413,-12.303 -4.964,-12.061 1.211,-2.59 2.179,0 1.234,0.29 0,0 0,0"
             style="fill:#e8987c;fill-opacity:1;fill-rule:nonzero;stroke:none"
             id="path764" /></g><g
           id="g766"
           transform="translate(205.2656,162.2305)"><path
             d="m 0,0 c 0,0 -8.491,-6.634 -11.94,-19.636 -3.45,-13.002 -0.531,-33.964 19.635,-41.393 20.166,-7.43 57.048,-7.43 70.581,0 13.533,7.429 18.043,24.146 16.982,37.148 C 94.196,-10.88 80.134,-3.98 80.134,-3.98 Z"
             style="fill:#695772;fill-opacity:1;fill-rule:nonzero;stroke:none"
             id="path768" /></g><g
           id="g770"
           transform="translate(198.2666,132.2402)"><path
             d="m 0,0 c 1.993,-9.174 8.863,-20.964 28.626,-24.82 32.637,-6.368 56.914,7.844 64.609,19.254 1.321,1.958 2.235,3.803 2.857,5.566 z"
             style="fill:#4a3852;fill-opacity:1;fill-rule:nonzero;stroke:none"
             id="path772" /></g><g
           id="g774"
           transform="translate(234.6299,276.6816)"><path
             d="m 0,0 c 0,0 -26.092,-7.076 -31.045,-9.552 -4.953,-2.477 -7.253,-23.35 -11.852,-27.95 -4.599,-4.6 -8.845,-16.628 -6.015,-24.589 2.831,-7.96 19.105,-1.768 19.105,-1.768 0.531,-10.437 -3.007,-19.017 -0.088,-25.65 2.918,-6.634 -4.246,-18.574 -4.246,-24.678 0,-6.102 -0.53,-16.451 -2.122,-18.573 -1.592,-2.123 -8.491,-25.738 24.146,-32.107 32.638,-6.368 61.294,3.45 68.989,14.859 7.695,11.41 1.857,19.106 1.857,27.862 0,8.756 2.12,14.328 2.122,21.757 0.002,7.43 -2.917,14.595 -1.59,20.432 1.326,5.838 3.979,17.513 3.979,17.513 0,0 4.777,-6.369 15.125,-6.899 10.349,-0.531 14.86,14.86 7.695,26.8 -7.164,11.94 -10.348,15.92 -13.267,21.493 -2.919,5.571 -9.198,12.117 -11.498,13.267 -2.3,1.15 -18.398,5.13 -23.44,6.987 C 32.814,1.062 9.022,5.837 0,0"
             style="fill:#f2e372;fill-opacity:1;fill-rule:nonzero;stroke:none"
             id="path776" /></g><g
           id="g778"
           transform="translate(304.3301,211.374)"><path
             d="m 0,0 c -6.58,6.845 -5.153,10.149 -5.186,15.343 -0.033,5.193 -1.167,27.826 -3.21,31.616 -0.453,-14.621 0.909,-22.883 -2.949,-33.032 -3.857,-10.151 -2.722,-13.242 -4.991,-17.716 -2.269,-4.473 -18.379,-21.94 -36.077,-27.133 12.479,0.472 29.773,11.91 33.605,12.918 3.833,1.009 5.245,-9.613 0,-14.807 -5.243,-5.193 -12.73,-14.942 -13.865,-16.794 14.975,12.31 12.756,10.893 13.865,4.284 1.11,-6.61 2.018,-16.75 -0.705,-23.01 -0.901,-2.072 -0.436,-4.709 -0.118,-7.842 -6.171,-6.127 -23.299,-19.045 -53.996,-13.289 13.627,-4.557 36.22,-6.686 54.075,7.08 -0.383,-3.448 -1.679,-7.291 -5.116,-11.477 5.662,2.749 9.879,6.094 12.147,9.593 7.21,11.122 1.741,18.623 1.741,27.16 0,8.535 1.985,13.967 1.987,21.21 0.002,7.242 -2.733,14.225 -1.49,19.916 l 3.729,17.071 c 0,0 4.476,-6.208 14.172,-6.725 2.946,-0.157 5.384,1.124 7.166,3.303 C 14.494,-2.487 6.461,-6.721 0,0"
             style="fill:#f2d65c;fill-opacity:1;fill-rule:nonzero;stroke:none"
             id="path780" /></g><g
           id="g782"
           transform="translate(212.7837,202.9482)"><path
             d="M 0,0 C 2.357,-1.453 17.499,-7.991 27.065,-8.299 19.196,-4.975 4.665,2.179 0,8.37 -4.666,14.561 0.306,23.488 0,30.095 -0.307,36.701 -0.662,49.882 -4.537,51.819 -2.6,43.586 -5.748,25.667 -8.491,15.981 -11.206,6.397 -24.132,8.563 -24.405,8.61 -18.906,5.714 -7.96,9.874 -7.96,9.874 c 0.53,-10.436 -3.008,-19.017 -0.089,-25.649 2.919,-6.634 -4.245,-18.575 -4.245,-24.678 0,-6.103 -0.531,-16.451 -2.123,-18.573 -1.332,-1.777 -6.371,-18.589 11.118,-27.768 0.329,3.12 1.418,6.532 4.623,6.4 5.86,-0.242 13.995,5.328 6.731,11.139 -7.264,5.812 -14.045,18.646 -12.107,26.152 1.937,7.506 0.242,18.646 5.376,15.255 5.134,-3.389 6.489,-4.842 8.668,-15.255 1.211,4.843 5.085,13.802 -3.874,20.34 C -2.842,-16.225 -2.357,1.452 0,0"
             style="fill:#f2d65c;fill-opacity:1;fill-rule:nonzero;stroke:none"
             id="path784" /></g><g
           id="g786"
           transform="translate(234.6299,276.6816)"><path
             d="m 0,0 c 0,0 1.327,5.307 3.626,6.545 2.3,1.239 13.158,1.782 20.432,1.239 7.274,-0.544 9.376,-2.035 10.437,-2.566 1.062,-0.53 3.36,-6.014 3.36,-6.014 0,0 -23.261,5.13 -37.855,0.796"
             style="fill:#ffffc2;fill-opacity:1;fill-rule:nonzero;stroke:none"
             id="path788" /></g><g
           id="g790"
           transform="translate(278.3008,78.3154)"><path
             d="m 0,0 c -0.868,-0.521 -2.446,-0.618 -3.713,-1.05 0.642,0.516 1.124,1.115 1.922,1.447 C -0.198,1.062 1.327,0.796 0,0 m -4.908,3.848 c 0.729,0.464 1.924,0.264 1.128,-0.465 -0.382,-0.35 -1.406,-0.654 -2.439,-1.016 0.607,0.678 1.023,1.297 1.311,1.481 M 25.495,29.607 C 23.815,36.153 18.007,36.669 14.882,35.18 11.757,33.69 6.303,21.117 3.295,17.313 0.288,13.51 -10.149,8.911 -10.149,8.911 -11.706,8.19 -16.535,7.496 -16.518,4.378 c 0.019,-3.118 2.455,-4.112 5.905,-4.179 0.589,-0.012 1.118,0.079 1.6,0.231 -0.422,-1.164 -0.088,-2.42 2.447,-2.42 0.638,0 1.146,0.09 1.575,0.231 -0.117,-0.11 -0.227,-0.228 -0.316,-0.364 -0.995,-1.525 -0.464,-3.052 2.786,-3.117 3.251,-0.067 3.715,1.856 4.976,2.289 1.26,0.431 1.592,-0.034 -0.465,-0.963 -2.055,-0.929 -4.355,-2.565 -2.587,-3.715 1.77,-1.149 5.838,0 8.402,1.946 2.563,1.946 6.723,6.014 9.642,9.907 2.918,3.891 9.729,18.838 8.048,25.383"
             style="fill:#eeb294;fill-opacity:1;fill-rule:nonzero;stroke:none"
             id="path792" /></g><g
           id="g794"
           transform="translate(288.8525,76.1221)"><path
             d="M 0,0 C 0,0 -9.666,1.815 -13.53,9.263 -13.349,3.996 -5.812,-1.906 0,0"
             style="fill:#eaa486;fill-opacity:1;fill-rule:nonzero;stroke:none"
             id="path796" /></g><g
           id="g798"
           transform="translate(273.3096,76.5566)"><path
             d="M 0,0 C 0.524,0.174 0.928,0.427 1.278,0.709 0.783,0.54 0.339,0.317 0,0"
             style="fill:#eeb294;fill-opacity:1;fill-rule:nonzero;stroke:none"
             id="path800" /></g><g
           id="g802"
           transform="translate(275.9951,90.7891)"><path
             d="M 0,0 C 0.292,0.018 0.576,0.038 0.857,0.06 0.58,0.033 0.268,0.008 0,0 M 16.406,22.15 C 13.217,19.282 8.371,8.344 5.601,4.84 4.357,3.268 1.845,1.562 -0.677,0.099 c -3.171,-1.775 -6.946,-3.564 -7.148,-3.654 1.84,0.511 3.747,-1.691 4.972,-0.759 0.683,0.376 0.115,3.506 4.372,4.427 0.008,0.002 0.008,0.002 0.014,0.004 20.607,1.916 9.615,16.072 14.873,22.033"
             style="fill:#eaa486;fill-opacity:1;fill-rule:nonzero;stroke:none"
             id="path804" /></g><g
           id="g806"
           transform="translate(272.082,80.6826)"><path
             d="M 0,0 C -1.123,-0.392 -2.258,-0.849 -2.604,-1.505 -2.678,-1.646 -2.74,-1.791 -2.794,-1.937 -1.567,-1.552 -0.667,-0.743 0,0"
             style="fill:#eeb294;fill-opacity:1;fill-rule:nonzero;stroke:none"
             id="path808" /></g>
</g></g></g></svg>